<?xml version="1.0" encoding="utf-8"?>
<!-- Generator: Adobe Illustrator 19.2.1, SVG Export Plug-In . SVG Version: 6.00 Build 0)  -->
<svg version="1.1" id="Layer_1" xmlns="http://www.w3.org/2000/svg" xmlns:xlink="http://www.w3.org/1999/xlink" x="0px" y="0px"
	 viewBox="0 0 100 100" style="enable-background:new 0 0 100 100;" xml:space="preserve">
<path d="M50,60.1669922c-5.605957,0-10.1665039-4.5605469-10.1665039-10.1669922
	c0-5.605957,4.5605469-10.1665039,10.1665039-10.1665039c5.6064453,0,10.1669922,4.5605469,10.1669922,10.1665039
	C60.1669922,55.6064453,55.6064453,60.1669922,50,60.1669922z M50,44.8334961c-2.8486328,0-5.1665039,2.3178711-5.1665039,5.1665039
	S47.1513672,55.1669922,50,55.1669922S55.1669922,52.8486328,55.1669922,50S52.8486328,44.8334961,50,44.8334961z"/>
<g>
	<path d="M87.230835,44h3.0302124C87.4934692,25.3531494,72.0554199,10.7927856,52.9997559,9.3972168v3.0072021
		C70.4272461,13.7770996,84.5099487,26.9874268,87.230835,44z"/>
	<path d="M46.9997559,12.4044189V9.3972168C27.9441528,10.7927856,12.5064697,25.3531494,9.7389526,44h3.02948
		C15.4893188,26.9873657,29.5721436,13.7769775,46.9997559,12.4044189z"/>
	<path d="M52.9997559,87.5957031v3.0070801C72.0553589,89.2071533,87.4932861,74.6465454,90.2609863,56H87.230835
		C84.5101318,73.0126343,70.4273682,86.2230225,52.9997559,87.5957031z"/>
	<path d="M12.7684326,56H9.7390137c2.7675781,18.6465454,18.2052002,33.2071533,37.2607422,34.6027832v-3.0070801
		C29.5721436,86.2231445,15.4891968,73.0126953,12.7684326,56z"/>
	<path d="M52.9997559,12.4044189v3.0084839C68.7439575,16.7677002,81.5120239,28.6680908,84.1946411,44h3.0361938
		C84.5099487,26.9874268,70.4272461,13.7770996,52.9997559,12.4044189z"/>
	<path d="M12.7684326,44h3.0369263c2.6825562-15.3319092,15.4502563-27.2322998,31.194397-28.5870972v-3.0084839
		C29.5721436,13.7769775,15.4893188,26.9873657,12.7684326,44z"/>
	<path d="M46.9997559,87.5957031v-3.008606C31.2555542,83.2324219,18.487793,71.3322754,15.8053589,56h-3.0369263
		C15.4891968,73.0126953,29.5721436,86.2231445,46.9997559,87.5957031z"/>
	<path d="M87.230835,56h-3.0361938C81.512085,71.3322754,68.7440186,83.2324219,52.9997559,84.5870972v3.008606
		C70.4273682,86.2230225,84.5101318,73.0126343,87.230835,56z"/>
	<path d="M52.9997559,84.5870972V67h-6v17.5870972c0.9897461,0.085144,1.9885864,0.1380005,3,0.1380005
		S52.0100098,84.6722412,52.9997559,84.5870972z"/>
	<path d="M46.9997559,15.4129028V33h6V15.4129028c-0.9897461-0.085144-1.9885864-0.1380005-3-0.1380005
		S47.989502,15.3277588,46.9997559,15.4129028z"/>
	<path d="M49.9996338,12.2748413c1.0109253,0,2.0092773,0.0515137,3.0001221,0.1295776V9.3972168
		c-0.9918213-0.0726318-1.9899292-0.1223145-3-0.1223145s-2.0081787,0.0496826-3,0.1223145v3.0072021
		C47.9905396,12.326355,48.9887695,12.2748413,49.9996338,12.2748413z"/>
	<path d="M49.9996338,87.7252808c-1.0108643,0-2.0090942-0.0515137-2.9998779-0.1295776v3.0070801
		c0.9918213,0.0726318,1.9899292,0.1223145,3,0.1223145s2.0081787-0.0496826,3-0.1223145v-3.0070801
		C52.0089111,87.6737671,51.0105591,87.7252808,49.9996338,87.7252808z"/>
	<path d="M49.9996338,87.7252808c1.0109253,0,2.0092773-0.0515137,3.0001221-0.1295776v-3.008606
		c-0.9897461,0.085144-1.9885864,0.1380005-3,0.1380005s-2.0102539-0.0528564-3-0.1380005v3.008606
		C47.9905396,87.6737671,48.9887695,87.7252808,49.9996338,87.7252808z"/>
	<path d="M49.9996338,12.2748413c-1.0108643,0-2.0090942,0.0515137-2.9998779,0.1295776v3.0084839
		c0.9897461-0.085144,1.9885864-0.1380005,3-0.1380005s2.0102539,0.0528564,3,0.1380005v-3.0084839
		C52.0089111,12.326355,51.0105591,12.2748413,49.9996338,12.2748413z"/>
</g>
</svg>
